<?xml version="1.0" encoding="utf-8"?>
<!-- Generator: Adobe Illustrator 22.1.0, SVG Export Plug-In . SVG Version: 6.00 Build 0)  -->
<svg version="1.1" id="Layer_1" xmlns="http://www.w3.org/2000/svg" xmlns:xlink="http://www.w3.org/1999/xlink" x="0px" y="0px"
	 viewBox="0 0 200 200" style="enable-background:new 0 0 200 200;" xml:space="preserve">
<style type="text/css">
	.st0{opacity:0.1;fill:#676767;}
	.st1{fill:#676767;}
</style>
<circle class="st0" cx="100" cy="100" r="100"/>
<path class="st1" d="M109.8,78h20.1l-2.4,22h-17.7v63.9H83.4V100H70.1V78h13.3V64.7c0-9.4,2.2-16.6,6.5-21.5
	c4.5-4.7,11.9-7.1,22-7.1h17.7v22h-10.9c-2.5,0-4.2,0.2-4.9,0.5c-1.3,0.2-2.2,0.7-2.7,1.6c-0.4,0.9-0.8,1.8-1.1,2.7
	c0,0.2,0,0.7-0.1,1.6c-0.1,0.7-0.1,1.5-0.1,2.2L109.8,78L109.8,78z"/>
</svg>
