<?xml version="1.0" encoding="utf-8"?>
<!-- Generator: Adobe Illustrator 22.1.0, SVG Export Plug-In . SVG Version: 6.00 Build 0)  -->
<svg version="1.1" id="Layer_1" xmlns="http://www.w3.org/2000/svg" xmlns:xlink="http://www.w3.org/1999/xlink" x="0px" y="0px"
	 viewBox="0 0 200 200" style="enable-background:new 0 0 200 200;" xml:space="preserve">
<style type="text/css">
	.st0{opacity:0.1;fill:#676767;enable-background:new    ;}
	.st1{fill:#676767;}
</style>
<circle class="st0" cx="100" cy="100" r="100"/>
<path class="st1" d="M119.3,49.6c4.6,0.2,8.5,0.9,11.8,2.2c3.3,1.5,6.2,3.4,8.5,5.9c2.5,2.5,4.5,5.4,5.8,8.7
	c1.3,3.4,1.9,7.4,2.1,12.1c0.3,3.5,0.4,10.4,0.4,20.7c0,10.1-0.2,17-0.4,20.4c-0.2,4.7-0.8,8.7-2.1,12.1c-1.3,3.3-3.2,6.1-5.8,8.7
	c-2.4,2.6-5.3,4.6-8.5,5.9c-3.3,1.3-7.3,2-11.8,2.2c-3.5,0.3-10.1,0.4-20,0.4c-10.1,0-16.7-0.1-20.2-0.4c-4.6-0.1-8.5-0.9-11.8-2.2
	c-3.2-1.3-6.2-3.3-8.5-5.9c-2.5-2.5-4.4-5.5-5.8-8.7c-1.3-3.4-1.9-7.4-2.1-12.1c-0.2-3.5-0.4-10.3-0.4-20.4
	c0-10.3,0.1-17.1,0.4-20.7c0.1-4.7,0.8-8.6,2.1-12.1c1.3-3.4,3.1-6.3,5.8-8.7c2.5-2.4,5.4-4.4,8.5-5.9c3.3-1.3,7.3-2,11.8-2.2
	c3.5-0.3,10.2-0.4,20.2-0.4C109.3,49.1,115.9,49.3,119.3,49.6z M79.6,58.6c-3,0.1-6.1,0.7-9,1.6c-2,1-4,2.2-5.8,3.7
	c-1.5,1.8-2.7,3.8-3.6,5.9c-1,3-1.5,6-1.5,9.2c-0.2,3.5-0.4,10.3-0.4,20.2c0,9.9,0.1,16.5,0.4,20.1c0.1,3.4,0.6,6.4,1.5,9.2
	c0.8,2.1,2.1,4.1,3.6,5.9c1.4,1.5,3.3,2.7,5.8,3.7c2.7,1,5.7,1.5,9,1.7c3.5,0.2,10.1,0.2,19.8,0.2c9.6,0,16.2-0.1,19.6-0.2
	c3-0.2,6.1-0.8,9-1.7c2.4-1,4.3-2.2,5.8-3.7c1.4-1.4,2.6-3.4,3.6-5.9c0.9-3,1.5-6.1,1.7-9.2c0.1-3.5,0.2-10.2,0.2-20.1
	c0-10-0.1-16.8-0.2-20.2c-0.2-3.1-0.8-6.2-1.7-9.2c-1-2.4-2.2-4.4-3.6-5.9c-1.7-1.6-3.6-2.8-5.8-3.7c-2.9-0.9-5.9-1.4-9-1.6
	c-3.5-0.3-10-0.4-19.6-0.4C89.6,58.1,83,58.3,79.6,58.6L79.6,58.6z M117,80.8c4.9,5,7.4,11.1,7.4,18.2c0,7-2.5,13-7.4,18
	c-4.9,5-10.7,7.5-17.6,7.5c-7,0-12.9-2.5-17.8-7.5c-4.9-5-7.4-11-7.4-18c0-7.1,2.5-13.2,7.4-18.2c4.9-5,10.8-7.5,17.8-7.5
	C106.2,73.4,112.1,75.8,117,80.8L117,80.8z M110.8,110.7c3.1-3.2,4.7-7.1,4.7-11.7c0-4.7-1.6-8.6-4.7-11.8c-3.2-3.2-7-4.8-11.4-4.8
	c-4.6,0-8.5,1.6-11.6,4.8C84.6,90.5,83,94.4,83,99c0,4.6,1.6,8.5,4.7,11.7c3.1,3.3,7,4.8,11.6,4.8
	C103.8,115.6,107.6,113.9,110.8,110.7L110.8,110.7z M125.2,66.4c-1.7,0-3,0.6-4.2,1.7c-1.2,1.2-1.7,2.6-1.7,4.3
	c0,1.7,0.6,3.1,1.7,4.3c1.2,1.2,2.5,1.7,4.2,1.7c1.6,0,3-0.6,4.2-1.7c1.2-1.2,1.7-2.6,1.7-4.3c0-1.6-0.6-3.1-1.7-4.3
	C128.4,66.9,126.8,66.3,125.2,66.4z"/>
</svg>
