<?xml version="1.0" encoding="utf-8"?>
<!-- Generator: Adobe Illustrator 22.1.0, SVG Export Plug-In . SVG Version: 6.00 Build 0)  -->
<svg version="1.1" id="Layer_1" xmlns="http://www.w3.org/2000/svg" xmlns:xlink="http://www.w3.org/1999/xlink" x="0px" y="0px"
	 viewBox="0 0 1106.5 996" style="enable-background:new 0 0 1106.5 996;" xml:space="preserve">
<style type="text/css">
	.st0{fill:url(#SVGID_1_);}
	.st1{opacity:0.2;fill:url(#SVGID_2_);enable-background:new    ;}
	.st2{fill:#FFCB36;}
	.st3{fill:none;stroke:#3E1EA4;stroke-width:2;stroke-miterlimit:10;}
	.st4{fill:#3E1EA4;}
	.st5{fill:none;stroke:#FFFFFF;stroke-width:2;stroke-miterlimit:10;}
	.st6{fill:#FFFFFF;stroke:#F0F0F0;stroke-width:1.2864;stroke-miterlimit:10;}
	.st7{fill:none;stroke:#4510AB;stroke-width:1.0138;stroke-miterlimit:10;}
	.st8{fill:none;stroke:#4510AB;stroke-width:0.9909;stroke-miterlimit:10;}
	.st9{fill:none;stroke:#4510AB;stroke-width:0.7638;stroke-miterlimit:10;}
	.st10{fill:#FFFFFF;stroke:#05D3AB;stroke-width:1.391;stroke-miterlimit:10;}
	.st11{opacity:0.4;fill:#05D3AB;stroke:#FFFFFF;stroke-width:0.3751;stroke-miterlimit:10;enable-background:new    ;}
	.st12{fill:#00ECC3;}
	.st13{opacity:0.4;fill:#05D3AB;stroke:#FFFFFF;stroke-width:1.391;stroke-miterlimit:10;enable-background:new    ;}
	.st14{fill:#FFFFFF;}
	.st15{fill:#001246;}
	.st16{fill:#011035;}
	.st17{opacity:0.1;enable-background:new    ;}
	.st18{fill:#6573EF;}
	.st19{fill:none;stroke:#000002;stroke-width:0.6988;stroke-miterlimit:10;}
	.st20{fill:#F0F0F0;}
	.st21{fill:#D5D7E0;}
	.st22{fill:#5266D8;}
	.st23{fill:none;stroke:#F0F0F0;stroke-width:1.2037;stroke-linecap:round;stroke-miterlimit:10;}
	.st24{fill:#05D3AB;}
	.st25{fill:none;stroke:#4510AB;stroke-width:1.391;stroke-miterlimit:10;}
	.st26{opacity:0.5;fill:#FFCB36;enable-background:new    ;}
	.st27{fill:url(#SVGID_3_);}
</style>
<linearGradient id="SVGID_1_" gradientUnits="userSpaceOnUse" x1="285.3626" y1="3169.2646" x2="1348.2112" y2="3169.2646" gradientTransform="matrix(1 0 0 1 -242.9112 -2658)">
	<stop  offset="0" style="stop-color:#21EECB;stop-opacity:0.1"/>
	<stop  offset="0.7093" style="stop-color:#9DB6DE"/>
	<stop  offset="1" style="stop-color:#6674F2"/>
</linearGradient>
<path class="st0" d="M116.1,394.2C8,482.9-10.8,804.9,266.9,872s360.4-151,630.9,26.8c110,80.6,207.5,40.7,207.5,40.7V168.6
	c0,0-423.3-212.8-621.3-2.9C287.7,373.6,252,275.6,116.1,394.2z"/>
<g>
	
		<linearGradient id="SVGID_2_" gradientUnits="userSpaceOnUse" x1="684.2394" y1="-1463.2" x2="684.2394" y2="-860.9" gradientTransform="matrix(1 0 0 -1 -68.4395 -698)">
		<stop  offset="0.1352" style="stop-color:#9FA6BA;stop-opacity:0.2248"/>
		<stop  offset="0.28" style="stop-color:#6F7996;stop-opacity:0.3638"/>
		<stop  offset="0.3988" style="stop-color:#475479;stop-opacity:0.5003"/>
		<stop  offset="0.4783" style="stop-color:#283763;stop-opacity:0.6339"/>
		<stop  offset="0.6558" style="stop-color:#122353;stop-opacity:0.7635"/>
		<stop  offset="0.7571" style="stop-color:#051649;stop-opacity:0.8876"/>
		<stop  offset="0.914" style="stop-color:#001246"/>
	</linearGradient>
	<path class="st1" d="M952.1,586.8h-20.3c-0.9,0,0-102.1,0-102.1h-28.6v102.1h-2.4h-0.2c-0.4,0-2.3,0-9.4,0V471.1h-1.8V508h-33.7v35
		h-1.1v43.7c-2.2,0-4.4,0-6.6,0v-41.2h-17.4c0,0,0.1,11.4,0,11.4s-4.2,0-4.2,0H825V442.3h-30.2l-15.4-266.5l-30.7-12.9l-10.3,279.7
		h-29.6v70.5h-11.4v73.7c-5.1,0-8.4,0-9,0c-3.2,0,0-71.9,0-71.9H664V241.6h-57c-1.8,0-0.3,240.4,0,273.4h-20.2v53.8h-36.4h-39.9
		v-30.5h-6.4v-45.9h-15.8v50.7h-4.2v65.2h-2.8V420.6c7.2-4.5,12-12.2,12-21c0-13-10.5-23.8-24.2-25.2v-35.6c4.5-1.3,7.8-5.1,7.8-9.8
		c0-5.4-4.6-9.9-10.3-10.2v-66.3h-1.4v66.3c-5.7,0.4-10.2,4.8-10.2,10.2c0,4.6,3.3,8.5,7.8,9.8v35.6c-13.6,1.4-24.2,12.2-24.2,25.2
		c0,10.4,6.7,19.3,16.3,23.3v77.7h-21.2c0,0,0.5,56.7,0,56.7s-15.1,0-15.1,0h-4.9v-74.9h-99.6v30.7h-40.4v252.1h128.9h107.8h255.4
		h36.5h30.5h119.4h5.7V586.8H952.1z M651.2,249.3c-1.3,3.6-3.3,8.2-4.8,14.2h-21.6c-1.4-5.9-3.7-10.5-5.1-14.2H651.2z"/>
	<polygon class="st2" points="333.1,496.3 375.9,496.3 375.9,539.2 	"/>
	<g>
		<g>
			<path class="st3" d="M367.8,689.6H625c7.1,0,12.9-5.8,12.9-12.9v-31c0-7.1-5.8-12.9-12.9-12.9h-58.1c-7.1,0-12.9-5.8-12.9-12.9
				V334.1"/>
			<g>
				<rect x="359.1" y="680.3" class="st4" width="18.4" height="18.4"/>
			</g>
			<g>
				<path class="st4" d="M564.4,334.6c0-5.8-4.6-10.4-10.4-10.4c-5.8,0-10.4,4.6-10.4,10.4S548.2,345,554,345
					C559.7,345.1,564.4,340.4,564.4,334.6z"/>
			</g>
		</g>
	</g>
	<g>
		<g>
			<path class="st5" d="M638.5,662h133.7c7.1,0,12.9-5.8,12.9-12.9v-41.8c0-7.1,5.8-12.9,12.9-12.9h59.3"/>
			<g>
				<path class="st5" d="M857,604.9c5.8,0,10.4-4.6,10.4-10.4c0-5.8-4.6-10.4-10.4-10.4s-10.4,4.6-10.4,10.4S851.3,604.9,857,604.9z
					"/>
			</g>
		</g>
	</g>
	<g>
		<path class="st5" d="M285.1,419.8v86.1c0,7.1-5.8,12.9-12.9,12.9h-49.6"/>
	</g>
	<g>
		<g>
			<path class="st3" d="M371.1,439.9h40.3c7.1,0,12.9,5.8,12.9,12.9v128.9c0,7.1,5.8,12.9,12.9,12.9h247"/>
			<g>
				<rect x="362.4" y="430.6" class="st4" width="18.4" height="18.4"/>
			</g>
		</g>
	</g>
	<path class="st6" d="M326.5,429.7h-7.1c3.2-0.9,5.5-3.7,5.5-7.2c0-4.1-3.3-7.5-7.5-7.5h-26.8c3.2-0.8,5.5-3.6,5.5-7.1
		c0-4-3.2-7.3-7.3-7.3h-34.5c-4,0-7.3,3.2-7.3,7.3c0,4,3.2,7.3,7.3,7.3h5.5c-3.2,0.8-5.8,3.7-5.8,7.3c0,3.5,2.3,6.3,5.5,7.2h-16.1
		c-4.4,0-8,3.6-8,8v1.9c0,4.4,3.6,8,8,8h82.8c4.4,0,8-3.6,8-8v-2.2C334.4,433.2,330.9,429.7,326.5,429.7z"/>
	<line class="st7" x1="713.5" y1="770.5" x2="830.1" y2="770.5"/>
	<line class="st7" x1="743.8" y1="777" x2="811.9" y2="777"/>
	<line class="st8" x1="400.1" y1="770.5" x2="511.5" y2="770.5"/>
	<line class="st8" x1="351.2" y1="777" x2="471.2" y2="777"/>
	<line class="st8" x1="368.3" y1="783.6" x2="451.3" y2="783.6"/>
	<line class="st8" x1="234.9" y1="648.2" x2="354.9" y2="648.2"/>
	<line class="st8" x1="252" y1="654.8" x2="335" y2="654.8"/>
	<line class="st9" x1="924.6" y1="422.8" x2="995.9" y2="422.8"/>
	<line class="st9" x1="934.8" y1="429.4" x2="984.1" y2="429.4"/>
	<g>
		<path class="st5" d="M337.1,552.9h116c7.1,0,12.9-5.8,12.9-12.9v-31.9c0-7.1,5.8-12.9,12.9-12.9H690c7.1,0,12.9,5.8,12.9,12.9V535
			c0,7.1,5.8,12.9,12.9,12.9h185.8c7.1,0,12.9-5.8,12.9-12.9V338.5"/>
	</g>
	<rect x="854.1" y="299.4" class="st10" width="137.3" height="105.7"/>
	<rect x="847.4" y="306.1" class="st10" width="137.3" height="105.7"/>
	<g>
		<rect x="854.2" y="365.1" class="st11" width="58.9" height="4.8"/>
		<rect x="854.2" y="371.8" class="st11" width="58.9" height="4.8"/>
		<rect x="854.2" y="378.4" class="st11" width="58.9" height="4.8"/>
		<rect x="854.2" y="384.9" class="st11" width="58.9" height="4.8"/>
		<rect x="854.2" y="391.6" class="st11" width="58.9" height="4.8"/>
		<rect x="854.2" y="398.2" class="st11" width="58.9" height="4.8"/>
	</g>
	<rect x="854.2" y="312.3" class="st12" width="58.9" height="46.3"/>
	<rect x="918.3" y="312.3" class="st12" width="58.9" height="92.5"/>
	<rect x="195.2" y="511.3" class="st10" width="167.2" height="120.2"/>
	<rect x="188.6" y="518" class="st10" width="167.2" height="120.2"/>
	<rect x="202.5" y="532.5" class="st13" width="139.4" height="30.6"/>
	<g>
		<rect x="202.5" y="571.2" class="st11" width="64.8" height="4.8"/>
		<rect x="202.5" y="577.8" class="st11" width="64.8" height="4.8"/>
		<rect x="202.5" y="584.5" class="st11" width="64.8" height="4.8"/>
		<rect x="202.5" y="591" class="st11" width="64.8" height="4.8"/>
		<rect x="202.5" y="597.6" class="st11" width="64.8" height="4.8"/>
		<rect x="202.5" y="604.3" class="st11" width="64.8" height="4.8"/>
		<rect x="202.5" y="610.8" class="st11" width="64.8" height="4.8"/>
		<rect x="202.5" y="617.5" class="st11" width="64.8" height="4.8"/>
	</g>
	<rect x="275.4" y="571.2" class="st12" width="65.6" height="51.1"/>
	<g>
		<path class="st14" d="M502.9,588.3c0,0-14.2,26.9-16.9,26.1c-2.7-0.8,2.4-6.4,2.3-8c-0.4-5,4.1-15.4,4.1-15.4L502.9,588.3z"/>
		<path class="st14" d="M765.8,442.8c0,0,22.8-20.1,21.5-22.5c-1.4-2.4-5.7,3.9-7.3,4.1c-4.9,0.8-14,7.6-14,7.6L765.8,442.8z"/>
		<path class="st15" d="M642.9,389.7l4.6,4.1l32,50.3l86.4-12.1l6.4,6.6l-6.6,4.2l-9.6,5.4l-76.7,30.4
			C657,460.7,628.2,435,628.2,435"/>
		<polygon class="st16" points="630.7,437.2 636,417 640.4,445.7 		"/>
		<polygon class="st14" points="487.7,723.8 481.4,717.5 469.9,727.1 475.2,735.5 		"/>
		<polygon class="st17" points="481.4,717.5 482.7,728.5 469.9,727.1 		"/>
		
			<rect x="734.6" y="730" transform="matrix(0.9792 -0.2029 0.2029 0.9792 -134.4893 165.3165)" class="st14" width="8.9" height="17.2"/>
		<polygon class="st18" points="484.9,731.4 644.9,602.7 631,519.2 570.7,544.5 586,606.6 475.7,719.8 		"/>
		<polygon class="st17" points="734,736.5 744,741 742.8,735.2 		"/>
		<polygon class="st18" points="631,519.2 688.5,591.2 748.5,735.9 729.8,738.6 659.4,627.6 633.6,611.9 644.9,602.7 		"/>
		<path class="st15" d="M644.9,400.6c0,0-34.5,56.6-21.5,88c6.9,21.5,14.5,28,14.5,28l-86.8,36c0,0-23.5-94.5,25.5-158.8
			c0,0,23.6-32.9,38.1-26c0,0,16.5,9.9,25.7,13C646.2,393.8,644.9,400.6,644.9,400.6z"/>
		<path class="st14" d="M633.3,382.5c0,0,1.7-8,12.5-9.9c0,0,1.2-7.8,4.5-13.4c3.2-5.4,9-12.1,4.5-16.2s-15.6-18.4-27.9,10.8
			c-0.5,4.9-12.2,14-12.2,14s3.9,12,10.7,17.2C632.3,390.3,633.3,382.5,633.3,382.5z"/>
		<g>
			<path d="M648.5,360.4c-0.1,0.1-0.6-0.1-1.3-0.5c-0.5-0.4-1.8-1.5-1.7-1.7c0.1-0.1,1.5,0.6,2.1,1.2
				C648.2,359.7,648.6,360.1,648.5,360.4z"/>
			<ellipse transform="matrix(0.3837 -0.9235 0.9235 0.3837 67.5369 819.2032)" class="st19" cx="647.5" cy="359" rx="6.3" ry="4"/>
			<line class="st19" x1="631.9" y1="347" x2="643.7" y2="357.3"/>
		</g>
		<path d="M632.8,349.6c0,0-0.8,2.4,1.2,2.8c1.9,0.5,2.6-2.6,2.6-2.6c1.2-7.8,8-12.6,8-12.6s5.1,19.6,15.2,19.6
			c6.4,0.1,22.5-8.2,16.9-14.7c-4.2-4.8-18.8-8.6-18.8-8.6s-9.9-11.4-16.6-3.1c0,0-10.8-9.3-17.2,19.4c0,0-1.7,6.9,1.5,7.7
			c3.2,0.8,2.2-6.4,5.1-7.3C632.8,349.6,632.8,349.6,632.8,349.6z"/>
		<path class="st20" d="M750.1,752.3c1.5,1,2.6-0.9,4-1.9c-1-0.3-2.1-0.6-3-0.9C750,750.5,748.3,751.4,750.1,752.3z"/>
		<path class="st20" d="M756.2,754.1c1.2,1.7,2.3-0.8,3.3-2.1c-0.9-0.3-1.8-0.5-2.8-0.8C755.9,752.2,755.4,753.4,756.2,754.1z"/>
		<path class="st15" d="M759.5,752.1c-1.2,1.4-2.3,3.9-3.3,2.1c-0.8-0.8-0.3-1.9,0.6-3c-0.9-0.3-1.8-0.5-2.7-0.8c-1.4,1-2.4,3-4,1.9
			c-1.8-0.9,0-1.8,1-2.8c-3.2-1-5.7-4.6-6.6-6.2l-8.7,1.8c0,0-2.1,8.9-5.3,12.7c13,0.8,27.9,0.6,40.8,0
			C771.4,753.8,765.7,754,759.5,752.1z"/>
		<path class="st20" d="M771.4,757.9c-12.9,0.6-27.7,0.8-40.8,0c-0.1,0.4-0.3,0.8-0.4,1.2c-1.9,5.1,5.4,4.1,5.4,4.1
			s36.5,2.1,37.2-1.7C772.9,760.3,773.7,759.4,771.4,757.9z"/>
		<g>
			<polygon class="st20" points="789.5,413.2 782.9,412.3 766.2,429.8 764.9,439.9 			"/>
			<polygon class="st21" points="764.9,439.9 765.8,442.1 791,414.1 789.5,413.2 			"/>
		</g>
		<polyline class="st22" points="644.9,602.7 631,519.2 659.4,627.6 633.6,611.9 		"/>
		<polygon class="st22" points="561.8,631.4 597.4,606.8 579.9,582.3 586,606.6 		"/>
		<polygon class="st22" points="631,519.2 575,562.6 570.7,544.5 		"/>
		<path class="st16" d="M610.4,428l-59.3,124.5c0,0-8.1-42.7-3.7-52.9C551.7,489.6,610.4,428,610.4,428z"/>
		<path class="st23" d="M636.9,428.3c0,0-3.1-13,5.3-18.7s9.1-14.9,8.4-18.3c-0.8-3.3-10.2-16.9-10.2-16.9"/>
		<path class="st23" d="M630.7,354.8c0,0,9.5,33.2-0.6,45.7c-10.2,12.5-4.2,18.1,0,21.9c4.2,3.7,15.8,11.8,13,19.6
			c-6.3,16.9,9.5,105.4,67.9,39c16.3-18.4,54.7-44.8,54.7-44.8"/>
		<path class="st20" d="M472.5,740.8c1.2,0.4,2.2-0.3,3.1-0.8c-0.1-0.8-0.1-1.4-0.3-2.1c-1.2,0.4-2.6,0.4-3.5,0.9
			C471.2,739.5,472.5,740.1,472.5,740.8z"/>
		<path class="st15" d="M478.3,750.8c-0.8-1.9-1.4-4-1.8-6c-1.2,0.6-2.3,1-2.7,0.3c-1-1.5,0.9-2.2,2.2-2.7c-0.1-0.8-0.3-1.5-0.4-2.3
			c-1,0.5-1.9,1.2-3.1,0.8c0-0.6-1.3-1.3-0.6-1.8c1-0.5,2.4-0.6,3.5-0.9c-0.1-1.5-0.1-2.6-0.1-2.6l-5.3-8.4c0,0-6.6-0.8-12.3,0.4
			c6.3,14.5,15.1,28.6,27.9,36.3C493.4,758.6,481,757.4,478.3,750.8z"/>
		<path class="st20" d="M473.7,745c0.4,0.8,1.5,0.4,2.7-0.3c-0.1-0.9-0.4-1.7-0.5-2.4C474.6,742.8,472.8,743.5,473.7,745z"/>
		<path class="st14" d="M457.6,727.5c-0.4,0.1-0.8,0.1-1,0.3c-0.8,0.1-1.3,0.5-1.8,0.8c-3.5,2.4-0.8,8.4-0.8,8.4s8.1,12.2,15.4,21.6
			c0.3,0.4,0.5,0.6,0.8,0.9c4.2,4.4,10.9,5.1,13.9,4.8c0.6-0.1,1-0.1,1.3-0.4c0.1,0,0.1-0.1,0.3-0.1
			C472.6,756.1,463.9,742,457.6,727.5z"/>
		<path class="st15" d="M564.1,485.8c0,0,17-16.1,34.6-39.1s31.4-55.7,17.1-60.8c-14.4-5.1-37.9,6.9-60.3,37.3
			c-22.4,30.4-36.8,70.1-50.6,116.6c-13.8,46.4-18.9,52.9-18.9,52.9l20.7-5.1l14.4-18.9l27.4-56.9
			C548.4,511.6,551.5,498.8,564.1,485.8z"/>
	</g>
	<circle class="st6" cx="839.8" cy="525.5" r="5.7"/>
	<g>
		<circle class="st10" cx="856.5" cy="594.8" r="16.2"/>
		<polygon class="st24" points="865.4,594.8 851.6,586.8 851.6,602.6 		"/>
	</g>
	<line class="st25" x1="302.3" y1="764.2" x2="950.9" y2="764.2"/>
</g>
<circle class="st26" cx="320.7" cy="278.3" r="68.7"/>
<image style="overflow:visible;enable-background:new    ;" width="2000" height="1782" xlink:href="../img/texture.png"  transform="matrix(0.5192 0 0 0.5192 76.2 80.4037)">
</image>
<linearGradient id="SVGID_3_" gradientUnits="userSpaceOnUse" x1="-105.6694" y1="-65.9883" x2="-7.1165" y2="-127.7101" gradientTransform="matrix(0.3873 0.922 -0.922 0.3873 650.669 483.9145)">
	<stop  offset="0" style="stop-color:#FFFFFF;stop-opacity:0"/>
	<stop  offset="0.9949" style="stop-color:#FFFFFF"/>
</linearGradient>
<polygon class="st27" points="790.5,411.5 685.2,323.5 648.5,393.1 766.3,438.1 "/>
</svg>
