<?xml version="1.0" encoding="utf-8"?>
<!-- Generator: Adobe Illustrator 22.1.0, SVG Export Plug-In . SVG Version: 6.00 Build 0)  -->
<svg version="1.1" id="Layer_1" xmlns="http://www.w3.org/2000/svg" xmlns:xlink="http://www.w3.org/1999/xlink" x="0px" y="0px"
	 viewBox="0 0 200 200" style="enable-background:new 0 0 200 200;" xml:space="preserve">
<style type="text/css">
	.st0{opacity:0.1;fill:#676767;enable-background:new    ;}
	.st1{fill:#676767;}
</style>
<circle class="st0" cx="100" cy="100" r="100"/>
<path class="st1" d="M155,65.8c-3.4,4.7-7.1,8.5-11.2,11.4v2.9c0,6.6-0.9,12.7-2.7,18c-1.8,6.1-4.5,12-8,17.3
	c-3.1,5-7.3,10-12.7,14.8c-5.4,4.4-11.4,7.8-18,10c-6.8,2.6-14.3,3.9-22.4,3.9c-12.5,0-24-3.4-34.5-10.2c2.3,0.3,4.1,0.5,5.4,0.5
	c10.2,0,19.5-3.2,28-9.7c-4.7,0-9.4-1.5-13.1-4.4c-3.8-2.8-6.6-6.7-8-11.2c2.3,0.3,3.7,0.5,4.4,0.5c2.1,0,4-0.3,5.8-1
	c-5-1-9.3-3.5-12.9-7.5c-3.3-4-5.1-9.1-5.1-14.4v-0.2c3.1,1.8,6.6,2.7,10.2,2.7c-3.1-1.9-5.6-4.6-7.3-7.8c-1.8-3.1-2.7-6.7-2.7-10.7
	c0-4.2,1-8,2.9-11.4c5.6,6.9,12.5,12.5,20.4,16.5c8.1,4.2,17,6.6,26,7.1c-0.5-1.7-0.7-3.5-0.7-5.4c0-6.2,2.2-11.4,6.6-15.8
	c4.4-4.4,9.7-6.6,16.1-6.6c6.5,0,11.9,2.4,16.3,7.1c5.1-1,9.9-2.8,14.4-5.4c-1.6,5.4-4.9,9.5-10,12.4C146,68.7,150.3,67.5,155,65.8
	L155,65.8z"/>
</svg>
