<?xml version="1.0" encoding="utf-8"?>
<!-- Generator: Adobe Illustrator 22.1.0, SVG Export Plug-In . SVG Version: 6.00 Build 0)  -->
<svg version="1.1" id="Layer_1" xmlns="http://www.w3.org/2000/svg" xmlns:xlink="http://www.w3.org/1999/xlink" x="0px" y="0px"
	 viewBox="0 0 200 200" style="enable-background:new 0 0 200 200;" xml:space="preserve">
<style type="text/css">
	.st0{opacity:0.1;fill:#676767;enable-background:new    ;}
	.st1{fill:#676767;}
</style>
<circle class="st0" cx="100" cy="100" r="100"/>
<path class="st1" d="M157.6,71.2c1,3.9,1.7,9.9,2.2,17.9L160,100l-0.2,10.9c-0.4,8.1-1.2,14.2-2.2,18.1c-0.7,2.5-2.1,4.7-3.9,6.5
	c-1.9,1.9-4.2,3.2-6.8,3.9c-3.8,1-12.6,1.7-26.6,2.2l-19.8,0.2l-19.8-0.2c-14-0.4-22.8-1.2-26.6-2.2c-2.6-0.7-4.9-2-6.8-3.9
	c-1.8-1.8-3.2-4.1-3.9-6.5c-1-3.9-1.7-10-2.2-18.1L41,100c0-3.2,0.1-6.8,0.2-10.9c0.4-8,1.2-14,2.2-17.9c0.7-2.6,2-4.9,3.9-6.8
	c1.9-1.9,4.2-3.2,6.8-3.9c3.8-1,12.7-1.8,26.6-2.2l19.8-0.2l19.8,0.2c14,0.4,22.8,1.2,26.6,2.2c2.6,0.7,4.9,2,6.8,3.9
	C155.6,66.4,156.9,68.6,157.6,71.2L157.6,71.2z M88.3,117.9l31.2-17.9L88.3,82.3L88.3,117.9L88.3,117.9z"/>
</svg>
